name C:\Users\Nicos\Documents\OpenSimProjects\SprintingProject\Study1\PredictiveResults\IC_pred_Sprinting_optimum_27-October-2023__11-17-52___IKTD_Plus_2_p02_maxVel_01.mot
datacolumns 38
datarows 11
range 0.10871509 0.11853298
endheader
                time	/jointset/ground_pelvis/pelvis_tilt/value	/jointset/ground_pelvis/pelvis_list/value	/jointset/ground_pelvis/pelvis_rotation/value	/jointset/ground_pelvis/pelvis_tx/value	/jointset/ground_pelvis/pelvis_ty/value	/jointset/ground_pelvis/pelvis_tz/value	/jointset/hip_r/hip_flexion_r/value	/jointset/hip_r/hip_adduction_r/value	/jointset/hip_r/hip_rotation_r/value	/jointset/knee_r/knee_angle_r/value	/jointset/ankle_r/ankle_angle_r/value	/jointset/subtalar_r/subtalar_angle_r/value	/jointset/mtp_r/mtp_angle_r/value	/jointset/hip_l/hip_flexion_l/value	/jointset/hip_l/hip_adduction_l/value	/jointset/hip_l/hip_rotation_l/value	/jointset/knee_l/knee_angle_l/value	/jointset/ankle_l/ankle_angle_l/value	/jointset/subtalar_l/subtalar_angle_l/value	/jointset/mtp_l/mtp_angle_l/value	/jointset/back/lumbar_extension/value	/jointset/back/lumbar_bending/value	/jointset/back/lumbar_rotation/value	/jointset/acromial_r/arm_flex_r/value	/jointset/acromial_r/arm_add_r/value	/jointset/acromial_r/arm_rot_r/value	/jointset/elbow_r/elbow_flex_r/value	/jointset/radioulnar_r/pro_sup_r/value	/jointset/radius_hand_r/wrist_flex_r/value	/jointset/radius_hand_r/wrist_dev_r/value	/jointset/acromial_l/arm_flex_l/value	/jointset/acromial_l/arm_add_l/value	/jointset/acromial_l/arm_rot_l/value	/jointset/elbow_l/elbow_flex_l/value	/jointset/radioulnar_l/pro_sup_l/value	/jointset/radius_hand_l/wrist_flex_l/value	/jointset/radius_hand_l/wrist_dev_l/value	
          0.10871509	         -9.24488262	          3.73409920	        -18.76469660	          0.63728600	          0.95983758	          0.30607227	          7.62940621	         -6.58769604	          9.59457310	        -27.38962628	         12.05488993	         -7.82508239	         13.20739013	         62.23128759	        -10.55352492	         -2.10072235	       -134.09386866	         -0.09557008	        -23.32020269	         10.50251121	        -10.83815369	          0.74702605	          9.61683501	         59.61479149	        -11.82100706	        -12.44530496	        118.53393691	         88.57893036	        -15.71949526	          8.00098228	        -50.24788052	         -2.88570411	         -2.42933992	         90.12158643	         62.64876728	         -3.24337345	          8.34278981	
          0.11019525	         -9.22613467	          3.98728789	        -18.56411935	          0.65541371	          0.95944410	          0.30565667	          7.02882317	         -7.19908554	          9.26461158	        -27.98741949	         11.22357483	         -8.02066454	         12.44490357	         63.38885593	        -10.15330258	         -1.82738664	       -133.85505628	         -0.09759738	        -23.32859493	         11.22782064	        -10.67707052	          0.49547465	          9.50878888	         61.01961038	        -11.27160484	        -11.83106612	        118.95543586	         88.33400725	        -15.48895293	          8.12943778	        -51.82235264	         -2.46086841	         -2.83136514	         91.09589871	         62.02433862	         -3.36768037	          8.29905632	
          0.11019525	         -9.22613467	          3.98728789	        -18.56411935	          0.65541371	          0.95944410	          0.30565667	          7.02882317	         -7.19908554	          9.26461158	        -27.98741949	         11.22357483	         -8.02066454	         12.44490357	         63.38885593	        -10.15330258	         -1.82738664	       -133.85505628	         -0.09759738	        -23.32859493	         11.22782064	        -10.67707052	          0.49547465	          9.50878888	         61.01961038	        -11.27160484	        -11.83106612	        118.95543586	         88.33400725	        -15.48895293	          8.12943778	        -51.82235264	         -2.46086841	         -2.83136514	         91.09589871	         62.02433862	         -3.36768037	          8.29905632	
          0.11084164	         -9.22019243	          4.09854607	        -18.47210715	          0.66333093	          0.95927830	          0.30547574	          6.77349270	         -7.46498628	          9.11172559	        -28.25272111	         10.82129924	         -8.11268256	         12.11937893	         63.89127443	         -9.97772836	         -1.71355530	       -133.73641458	         -0.10190151	        -23.33210846	         11.53390062	        -10.60439405	          0.38495990	          9.45773833	         61.62253987	        -11.03174516	        -11.55221308	        119.11283724	         88.22465842	        -15.38826034	          8.18226399	        -52.50263145	         -2.28616993	         -2.99982145	         91.50718520	         61.75482745	         -3.42503455	          8.28095566	
          0.11288395	         -9.20348777	          4.44550794	        -18.17273804	          0.68834369	          0.95879119	          0.30491554	          5.98522914	         -8.29362648	          8.60661592	        -29.10201840	          9.40286113	         -8.43541706	         10.98688208	         65.45394071	         -9.43281318	         -1.37645528	       -133.30451347	         -0.12839820	        -23.33841944	         12.45092364	        -10.37703913	          0.03745725	          9.29089964	         63.48687231	        -10.27599744	        -10.64041424	        119.49965684	         87.87603545	        -15.06988021	          8.33623246	        -54.61565217	         -1.77698058	         -3.49504934	         92.73697228	         60.90443682	         -3.61853945	          8.22351789	
          0.11436411	         -9.19192013	          4.68339900	        -17.95583365	          0.70646064	          0.95847789	          0.30453001	          5.42932058	         -8.87154352	          8.23467005	        -29.72650387	          8.23898810	         -8.71039882	         10.01095842	         66.55851973	         -9.06122940	         -1.14791521	       -132.93901713	         -0.16098814	        -23.33455876	         13.06075743	        -10.22033140	         -0.20429880	          9.17450634	         64.80067134	         -9.73190031	         -9.96063067	        119.67200814	         87.62099911	        -14.83906221	          8.43481136	        -56.10658578	         -1.44735957	         -3.81222878	         93.55135104	         60.28987225	         -3.77043358	          8.18126070	
          0.11436411	         -9.19192013	          4.68339900	        -17.95583365	          0.70646064	          0.95847789	          0.30453001	          5.42932058	         -8.87154352	          8.23467005	        -29.72650387	          8.23898810	         -8.71039882	         10.01095842	         66.55851973	         -9.06122940	         -1.14791521	       -132.93901713	         -0.16098814	        -23.33455876	         13.06075743	        -10.22033140	         -0.20429880	          9.17450634	         64.80067134	         -9.73190031	         -9.96063067	        119.67200814	         87.62099911	        -14.83906221	          8.43481136	        -56.10658578	         -1.44735957	         -3.81222878	         93.55135104	         60.28987225	         -3.77043358	          8.18126070	
          0.11501050	         -9.18674862	          4.78137889	        -17.86313065	          0.71436724	          0.95835261	          0.30436932	          5.19021490	         -9.11497511	          8.07448637	        -30.00143299	          7.69450348	         -8.84400275	          9.51422475	         67.03255368	         -8.90854994	         -1.05071829	       -132.76601474	         -0.17903449	        -23.32970831	         13.30990447	        -10.15540469	         -0.30499116	          9.12721912	         65.36492079	         -9.49584240	         -9.66067532	        119.71796203	         87.50967856	        -14.73826514	          8.47408444	        -56.74549623	         -1.31346015	         -3.93805834	         93.88395525	         60.02211629	         -3.83988313	          8.16264403	
          0.11705282	         -9.17241041	          5.06067850	        -17.58917388	          0.73931665	          0.95800094	          0.30390517	          4.45453653	         -9.83818099	          7.59450743	        -30.87790847	          5.85699187	         -9.30013958	          7.87316941	         68.49751286	         -8.47987783	         -0.74936950	       -132.16772275	         -0.25339725	        -23.29810422	         14.02586790	         -9.96467456	         -0.59700602	          9.00447361	         67.10949066	         -8.75594394	         -8.71733807	        119.74433750	         87.15450282	        -14.41978298	          8.58404115	        -58.71023950	         -0.92957344	         -4.27903169	         94.83234344	         59.17879554	         -4.07108023	          8.10257993	
          0.11853298	         -9.16161771	          5.23240866	        -17.41504100	          0.75736186	          0.95779175	          0.30361613	          3.94033659	        -10.31710692	          7.28016626	        -31.51861355	          4.41386388	         -9.66450224	          6.65661886	         69.52338179	         -8.22639026	         -0.53601097	       -131.68526775	         -0.32261832	        -23.25927433	         14.46126663	         -9.84370594	         -0.78285805	          8.94676216	         68.33785230	         -8.22600817	         -8.04587265	        119.64855912	         86.90068665	        -14.18896983	          8.64808057	        -60.07808403	         -0.68760553	         -4.46809665	         95.41391243	         58.56985694	         -4.24908102	          8.05927621	
          0.11853298	         -9.16161771	          5.23240866	        -17.41504100	          0.75736186	          0.95779175	          0.30361613	          3.94033659	        -10.31710692	          7.28016626	        -31.51861355	          4.41386388	         -9.66450224	          6.65661886	         69.52338179	         -8.22639026	         -0.53601097	       -131.68526775	         -0.32261832	        -23.25927433	         14.46126663	         -9.84370594	         -0.78285805	          8.94676216	         68.33785230	         -8.22600817	         -8.04587265	        119.64855912	         86.90068665	        -14.18896983	          8.64808057	        -60.07808403	         -0.68760553	         -4.46809665	         95.41391243	         58.56985694	         -4.24908102	          8.05927621	
